<mxfile host="app.diagrams.net" modified="2020-10-25T04:12:39.109Z" agent="5.0 (Windows)" etag="NRSlS0-T_pPdGTw2xSBQ" version="13.8.1" type="github">
  <diagram id="C5RBs43oDa-KdzZeNtuy" name="Page-1">
    <mxGraphModel dx="1422" dy="803" grid="1" gridSize="9" guides="1" tooltips="1" connect="1" arrows="1" fold="1" page="1" pageScale="1" pageWidth="827" pageHeight="1169" background="none" math="0" shadow="0">
      <root>
        <mxCell id="WIyWlLk6GJQsqaUBKTNV-0" />
        <mxCell id="WIyWlLk6GJQsqaUBKTNV-1" parent="WIyWlLk6GJQsqaUBKTNV-0" />
        <mxCell id="534QqyFiL1MUl5NV4_Nv-0" value="Airport" style="swimlane;fontStyle=1;align=center;verticalAlign=top;childLayout=stackLayout;horizontal=1;startSize=26;horizontalStack=0;resizeParent=1;resizeParentMax=0;resizeLast=0;collapsible=1;marginBottom=0;" parent="WIyWlLk6GJQsqaUBKTNV-1" vertex="1">
          <mxGeometry x="697" width="130" height="117" as="geometry" />
        </mxCell>
        <mxCell id="534QqyFiL1MUl5NV4_Nv-1" value="airportCode :String(3)&#xa;cityName :String&#xa;cityCode :String(3)" style="text;strokeColor=none;fillColor=none;align=left;verticalAlign=top;spacingLeft=4;spacingRight=4;overflow=hidden;rotatable=0;points=[[0,0.5],[1,0.5]];portConstraint=eastwest;" parent="534QqyFiL1MUl5NV4_Nv-0" vertex="1">
          <mxGeometry y="26" width="130" height="54" as="geometry" />
        </mxCell>
        <mxCell id="534QqyFiL1MUl5NV4_Nv-2" value="" style="line;strokeWidth=1;fillColor=none;align=left;verticalAlign=middle;spacingTop=-1;spacingLeft=3;spacingRight=3;rotatable=0;labelPosition=right;points=[];portConstraint=eastwest;" parent="534QqyFiL1MUl5NV4_Nv-0" vertex="1">
          <mxGeometry y="80" width="130" height="8" as="geometry" />
        </mxCell>
        <mxCell id="534QqyFiL1MUl5NV4_Nv-3" value="createAirport()&#xa;" style="text;strokeColor=none;fillColor=none;align=left;verticalAlign=top;spacingLeft=4;spacingRight=4;overflow=hidden;rotatable=0;points=[[0,0.5],[1,0.5]];portConstraint=eastwest;" parent="534QqyFiL1MUl5NV4_Nv-0" vertex="1">
          <mxGeometry y="88" width="130" height="29" as="geometry" />
        </mxCell>
        <mxCell id="534QqyFiL1MUl5NV4_Nv-5" value="FlightPath" style="swimlane;fontStyle=1;align=center;verticalAlign=top;childLayout=stackLayout;horizontal=1;startSize=26;horizontalStack=0;resizeParent=1;resizeParentMax=0;resizeLast=0;collapsible=1;marginBottom=0;" parent="WIyWlLk6GJQsqaUBKTNV-1" vertex="1">
          <mxGeometry x="470" width="189" height="127" as="geometry" />
        </mxCell>
        <mxCell id="534QqyFiL1MUl5NV4_Nv-6" value="pathID :String&#xa;departureAirport :Airport(ref)&#xa;arrivalAirport :Airport(ref)&#xa;&#xa;" style="text;strokeColor=none;fillColor=none;align=left;verticalAlign=top;spacingLeft=4;spacingRight=4;overflow=hidden;rotatable=0;points=[[0,0.5],[1,0.5]];portConstraint=eastwest;" parent="534QqyFiL1MUl5NV4_Nv-5" vertex="1">
          <mxGeometry y="26" width="189" height="64" as="geometry" />
        </mxCell>
        <mxCell id="534QqyFiL1MUl5NV4_Nv-7" value="" style="line;strokeWidth=1;fillColor=none;align=left;verticalAlign=middle;spacingTop=-1;spacingLeft=3;spacingRight=3;rotatable=0;labelPosition=right;points=[];portConstraint=eastwest;" parent="534QqyFiL1MUl5NV4_Nv-5" vertex="1">
          <mxGeometry y="90" width="189" height="8" as="geometry" />
        </mxCell>
        <mxCell id="534QqyFiL1MUl5NV4_Nv-8" value="createFlightPath()&#xa;" style="text;strokeColor=none;fillColor=none;align=left;verticalAlign=top;spacingLeft=4;spacingRight=4;overflow=hidden;rotatable=0;points=[[0,0.5],[1,0.5]];portConstraint=eastwest;" parent="534QqyFiL1MUl5NV4_Nv-5" vertex="1">
          <mxGeometry y="98" width="189" height="29" as="geometry" />
        </mxCell>
        <mxCell id="534QqyFiL1MUl5NV4_Nv-9" value="Flight" style="swimlane;fontStyle=1;align=center;verticalAlign=top;childLayout=stackLayout;horizontal=1;startSize=26;horizontalStack=0;resizeParent=1;resizeParentMax=0;resizeLast=0;collapsible=1;marginBottom=0;" parent="WIyWlLk6GJQsqaUBKTNV-1" vertex="1">
          <mxGeometry x="234" width="180" height="159" as="geometry" />
        </mxCell>
        <mxCell id="534QqyFiL1MUl5NV4_Nv-10" value="flightID :String&#xa;time :Time&#xa;date :Date&#xa;myPlane :Plane (ref)&#xa;myFlightPath: FlightPath(ref)&#xa;myFlightStatus :String" style="text;strokeColor=none;fillColor=none;align=left;verticalAlign=top;spacingLeft=4;spacingRight=4;overflow=hidden;rotatable=0;points=[[0,0.5],[1,0.5]];portConstraint=eastwest;" parent="534QqyFiL1MUl5NV4_Nv-9" vertex="1">
          <mxGeometry y="26" width="180" height="100" as="geometry" />
        </mxCell>
        <mxCell id="534QqyFiL1MUl5NV4_Nv-11" value="" style="line;strokeWidth=1;fillColor=none;align=left;verticalAlign=middle;spacingTop=-1;spacingLeft=3;spacingRight=3;rotatable=0;labelPosition=right;points=[];portConstraint=eastwest;" parent="534QqyFiL1MUl5NV4_Nv-9" vertex="1">
          <mxGeometry y="126" width="180" height="8" as="geometry" />
        </mxCell>
        <mxCell id="534QqyFiL1MUl5NV4_Nv-12" value="createFlight()" style="text;strokeColor=none;fillColor=none;align=left;verticalAlign=top;spacingLeft=4;spacingRight=4;overflow=hidden;rotatable=0;points=[[0,0.5],[1,0.5]];portConstraint=eastwest;" parent="534QqyFiL1MUl5NV4_Nv-9" vertex="1">
          <mxGeometry y="134" width="180" height="25" as="geometry" />
        </mxCell>
        <mxCell id="534QqyFiL1MUl5NV4_Nv-13" value="Plane" style="swimlane;fontStyle=1;align=center;verticalAlign=top;childLayout=stackLayout;horizontal=1;startSize=26;horizontalStack=0;resizeParent=1;resizeParentMax=0;resizeLast=0;collapsible=1;marginBottom=0;" parent="WIyWlLk6GJQsqaUBKTNV-1" vertex="1">
          <mxGeometry width="160" height="160" as="geometry" />
        </mxCell>
        <mxCell id="534QqyFiL1MUl5NV4_Nv-14" value="planeID :String&#xa;type :String&#xa;size :StringnumberOfSeats: Integer&#xa;allMySeats :Seat (coll-ref)&#xa;myFlight: Flight&#xa;" style="text;strokeColor=none;fillColor=none;align=left;verticalAlign=top;spacingLeft=4;spacingRight=4;overflow=hidden;rotatable=0;points=[[0,0.5],[1,0.5]];portConstraint=eastwest;" parent="534QqyFiL1MUl5NV4_Nv-13" vertex="1">
          <mxGeometry y="26" width="160" height="91" as="geometry" />
        </mxCell>
        <mxCell id="534QqyFiL1MUl5NV4_Nv-15" value="" style="line;strokeWidth=1;fillColor=none;align=left;verticalAlign=middle;spacingTop=-1;spacingLeft=3;spacingRight=3;rotatable=0;labelPosition=right;points=[];portConstraint=eastwest;" parent="534QqyFiL1MUl5NV4_Nv-13" vertex="1">
          <mxGeometry y="117" width="160" height="11" as="geometry" />
        </mxCell>
        <mxCell id="534QqyFiL1MUl5NV4_Nv-16" value="createPlane(type: Integer)" style="text;strokeColor=none;fillColor=none;align=left;verticalAlign=top;spacingLeft=4;spacingRight=4;overflow=hidden;rotatable=0;points=[[0,0.5],[1,0.5]];portConstraint=eastwest;" parent="534QqyFiL1MUl5NV4_Nv-13" vertex="1">
          <mxGeometry y="128" width="160" height="32" as="geometry" />
        </mxCell>
        <mxCell id="534QqyFiL1MUl5NV4_Nv-67" style="edgeStyle=orthogonalEdgeStyle;rounded=0;orthogonalLoop=1;jettySize=auto;html=1;exitX=0.75;exitY=0;exitDx=0;exitDy=0;fontSize=10;" parent="WIyWlLk6GJQsqaUBKTNV-1" source="534QqyFiL1MUl5NV4_Nv-21" edge="1">
          <mxGeometry relative="1" as="geometry">
            <Array as="points">
              <mxPoint x="450" y="240" />
              <mxPoint x="450" y="105" />
              <mxPoint x="416" y="105" />
            </Array>
            <mxPoint x="416" y="105" as="targetPoint" />
          </mxGeometry>
        </mxCell>
        <mxCell id="534QqyFiL1MUl5NV4_Nv-21" value="Ticket" style="swimlane;fontStyle=1;align=center;verticalAlign=top;childLayout=stackLayout;horizontal=1;startSize=26;horizontalStack=0;resizeParent=1;resizeParentMax=0;resizeLast=0;collapsible=1;marginBottom=0;" parent="WIyWlLk6GJQsqaUBKTNV-1" vertex="1">
          <mxGeometry x="290" y="240" width="190" height="160" as="geometry" />
        </mxCell>
        <mxCell id="534QqyFiL1MUl5NV4_Nv-22" value="ticketID :String&#xa;myPassengerID :Passenger(ref)&#xa;myFlightID :Flight(ref)&#xa;mySeatNumber :Seat(ref)&#xa;myBaggage :Baggage(coll-ref)&#xa;paymentStatus :Bool&#xa;price :Currency" style="text;strokeColor=none;fillColor=none;align=left;verticalAlign=top;spacingLeft=4;spacingRight=4;overflow=hidden;rotatable=0;points=[[0,0.5],[1,0.5]];portConstraint=eastwest;" parent="534QqyFiL1MUl5NV4_Nv-21" vertex="1">
          <mxGeometry y="26" width="190" height="104" as="geometry" />
        </mxCell>
        <mxCell id="534QqyFiL1MUl5NV4_Nv-23" value="" style="line;strokeWidth=1;fillColor=none;align=left;verticalAlign=middle;spacingTop=-1;spacingLeft=3;spacingRight=3;rotatable=0;labelPosition=right;points=[];portConstraint=eastwest;" parent="534QqyFiL1MUl5NV4_Nv-21" vertex="1">
          <mxGeometry y="130" width="190" height="8" as="geometry" />
        </mxCell>
        <mxCell id="534QqyFiL1MUl5NV4_Nv-24" value="isSold()" style="text;strokeColor=none;fillColor=none;align=left;verticalAlign=top;spacingLeft=4;spacingRight=4;overflow=hidden;rotatable=0;points=[[0,0.5],[1,0.5]];portConstraint=eastwest;" parent="534QqyFiL1MUl5NV4_Nv-21" vertex="1">
          <mxGeometry y="138" width="190" height="22" as="geometry" />
        </mxCell>
        <mxCell id="534QqyFiL1MUl5NV4_Nv-17" value="Seat" style="swimlane;fontStyle=1;align=center;verticalAlign=top;childLayout=stackLayout;horizontal=1;startSize=26;horizontalStack=0;resizeParent=1;resizeParentMax=0;resizeLast=0;collapsible=1;marginBottom=0;" parent="WIyWlLk6GJQsqaUBKTNV-1" vertex="1">
          <mxGeometry y="200" width="210" height="151" as="geometry" />
        </mxCell>
        <mxCell id="534QqyFiL1MUl5NV4_Nv-18" value="seatNumber :String&#xa;myTicket :Ticket(ref)&#xa;myPlane :Plane(ref)&#xa;isOccupied :Bool" style="text;strokeColor=none;fillColor=none;align=left;verticalAlign=top;spacingLeft=4;spacingRight=4;overflow=hidden;rotatable=0;points=[[0,0.5],[1,0.5]];portConstraint=eastwest;" parent="534QqyFiL1MUl5NV4_Nv-17" vertex="1">
          <mxGeometry y="26" width="210" height="91" as="geometry" />
        </mxCell>
        <mxCell id="534QqyFiL1MUl5NV4_Nv-19" value="" style="line;strokeWidth=1;fillColor=none;align=left;verticalAlign=middle;spacingTop=-1;spacingLeft=3;spacingRight=3;rotatable=0;labelPosition=right;points=[];portConstraint=eastwest;" parent="534QqyFiL1MUl5NV4_Nv-17" vertex="1">
          <mxGeometry y="117" width="210" height="8" as="geometry" />
        </mxCell>
        <mxCell id="534QqyFiL1MUl5NV4_Nv-20" value="createSeats(numberOfSeat :Integer)" style="text;strokeColor=none;fillColor=none;align=left;verticalAlign=top;spacingLeft=4;spacingRight=4;overflow=hidden;rotatable=0;points=[[0,0.5],[1,0.5]];portConstraint=eastwest;" parent="534QqyFiL1MUl5NV4_Nv-17" vertex="1">
          <mxGeometry y="125" width="210" height="26" as="geometry" />
        </mxCell>
        <mxCell id="534QqyFiL1MUl5NV4_Nv-57" value="1" style="endArrow=open;html=1;endSize=12;startArrow=diamondThin;startSize=14;startFill=1;edgeStyle=orthogonalEdgeStyle;align=left;verticalAlign=bottom;exitX=1;exitY=0.5;exitDx=0;exitDy=0;entryX=0;entryY=0.5;entryDx=0;entryDy=0;" parent="WIyWlLk6GJQsqaUBKTNV-1" source="534QqyFiL1MUl5NV4_Nv-6" target="534QqyFiL1MUl5NV4_Nv-1" edge="1">
          <mxGeometry x="-1" y="3" relative="1" as="geometry">
            <mxPoint x="630" y="180" as="sourcePoint" />
            <mxPoint x="790" y="180" as="targetPoint" />
          </mxGeometry>
        </mxCell>
        <mxCell id="534QqyFiL1MUl5NV4_Nv-58" value="2" style="text;html=1;resizable=0;autosize=1;align=center;verticalAlign=middle;points=[];fillColor=none;strokeColor=none;rounded=0;fontSize=10;" parent="WIyWlLk6GJQsqaUBKTNV-1" vertex="1">
          <mxGeometry x="670" y="20" width="20" height="20" as="geometry" />
        </mxCell>
        <mxCell id="534QqyFiL1MUl5NV4_Nv-59" value="1" style="endArrow=open;html=1;endSize=12;startArrow=diamondThin;startSize=14;startFill=1;edgeStyle=orthogonalEdgeStyle;align=left;verticalAlign=bottom;fontSize=10;exitX=1.017;exitY=0.331;exitDx=0;exitDy=0;exitPerimeter=0;" parent="WIyWlLk6GJQsqaUBKTNV-1" source="534QqyFiL1MUl5NV4_Nv-10" edge="1">
          <mxGeometry x="-1" y="3" relative="1" as="geometry">
            <mxPoint x="423" y="81" as="sourcePoint" />
            <mxPoint x="470" y="73" as="targetPoint" />
          </mxGeometry>
        </mxCell>
        <mxCell id="534QqyFiL1MUl5NV4_Nv-60" value="1" style="text;html=1;resizable=0;autosize=1;align=center;verticalAlign=middle;points=[];fillColor=none;strokeColor=none;rounded=0;fontSize=10;" parent="WIyWlLk6GJQsqaUBKTNV-1" vertex="1">
          <mxGeometry x="440" y="40" width="20" height="20" as="geometry" />
        </mxCell>
        <mxCell id="534QqyFiL1MUl5NV4_Nv-61" value="1" style="endArrow=open;html=1;endSize=12;startArrow=diamondThin;startSize=14;startFill=1;edgeStyle=orthogonalEdgeStyle;align=left;verticalAlign=bottom;fontSize=10;entryX=1.019;entryY=0.143;entryDx=0;entryDy=0;entryPerimeter=0;" parent="WIyWlLk6GJQsqaUBKTNV-1" target="534QqyFiL1MUl5NV4_Nv-14" edge="1">
          <mxGeometry x="-0.7014" y="-8" relative="1" as="geometry">
            <mxPoint x="230" y="38" as="sourcePoint" />
            <mxPoint x="320" y="180" as="targetPoint" />
            <mxPoint as="offset" />
          </mxGeometry>
        </mxCell>
        <mxCell id="534QqyFiL1MUl5NV4_Nv-62" value="1" style="text;html=1;resizable=0;autosize=1;align=center;verticalAlign=middle;points=[];fillColor=none;strokeColor=none;rounded=0;fontSize=10;" parent="WIyWlLk6GJQsqaUBKTNV-1" vertex="1">
          <mxGeometry x="170" y="10" width="20" height="20" as="geometry" />
        </mxCell>
        <mxCell id="534QqyFiL1MUl5NV4_Nv-63" value="1" style="endArrow=open;html=1;endSize=12;startArrow=diamondThin;startSize=14;startFill=1;edgeStyle=orthogonalEdgeStyle;align=left;verticalAlign=bottom;fontSize=10;entryX=0.948;entryY=-0.008;entryDx=0;entryDy=0;entryPerimeter=0;" parent="WIyWlLk6GJQsqaUBKTNV-1" target="534QqyFiL1MUl5NV4_Nv-17" edge="1">
          <mxGeometry x="-1" y="3" relative="1" as="geometry">
            <mxPoint x="160" y="80" as="sourcePoint" />
            <mxPoint x="350" y="180" as="targetPoint" />
            <Array as="points">
              <mxPoint x="199" y="80" />
            </Array>
          </mxGeometry>
        </mxCell>
        <mxCell id="534QqyFiL1MUl5NV4_Nv-64" value="1..*" style="text;html=1;resizable=0;autosize=1;align=center;verticalAlign=middle;points=[];fillColor=none;strokeColor=none;rounded=0;fontSize=10;" parent="WIyWlLk6GJQsqaUBKTNV-1" vertex="1">
          <mxGeometry x="155" y="170" width="30" height="20" as="geometry" />
        </mxCell>
        <mxCell id="534QqyFiL1MUl5NV4_Nv-68" value="1" style="text;html=1;resizable=0;autosize=1;align=center;verticalAlign=middle;points=[];fillColor=none;strokeColor=none;rounded=0;fontSize=10;" parent="WIyWlLk6GJQsqaUBKTNV-1" vertex="1">
          <mxGeometry x="430" y="117" width="20" height="20" as="geometry" />
        </mxCell>
        <mxCell id="534QqyFiL1MUl5NV4_Nv-69" value="1" style="text;html=1;resizable=0;autosize=1;align=center;verticalAlign=middle;points=[];fillColor=none;strokeColor=none;rounded=0;fontSize=10;" parent="WIyWlLk6GJQsqaUBKTNV-1" vertex="1">
          <mxGeometry x="450" y="210" width="20" height="20" as="geometry" />
        </mxCell>
        <mxCell id="534QqyFiL1MUl5NV4_Nv-78" value="" style="endArrow=none;html=1;fontSize=10;edgeStyle=elbowEdgeStyle;exitX=-0.2;exitY=1.45;exitDx=0;exitDy=0;exitPerimeter=0;entryX=1.5;entryY=-0.35;entryDx=0;entryDy=0;entryPerimeter=0;" parent="WIyWlLk6GJQsqaUBKTNV-1" source="534QqyFiL1MUl5NV4_Nv-79" target="534QqyFiL1MUl5NV4_Nv-80" edge="1">
          <mxGeometry width="50" height="50" relative="1" as="geometry">
            <mxPoint x="200" y="258" as="sourcePoint" />
            <mxPoint x="300" y="318" as="targetPoint" />
          </mxGeometry>
        </mxCell>
        <mxCell id="534QqyFiL1MUl5NV4_Nv-79" value="1" style="text;html=1;resizable=0;autosize=1;align=center;verticalAlign=middle;points=[];fillColor=none;strokeColor=none;rounded=0;fontSize=10;" parent="WIyWlLk6GJQsqaUBKTNV-1" vertex="1">
          <mxGeometry x="214" y="230" width="20" height="20" as="geometry" />
        </mxCell>
        <mxCell id="534QqyFiL1MUl5NV4_Nv-80" value="1" style="text;html=1;resizable=0;autosize=1;align=center;verticalAlign=middle;points=[];fillColor=none;strokeColor=none;rounded=0;fontSize=10;" parent="WIyWlLk6GJQsqaUBKTNV-1" vertex="1">
          <mxGeometry x="260" y="325" width="20" height="20" as="geometry" />
        </mxCell>
        <mxCell id="534QqyFiL1MUl5NV4_Nv-45" value="Staff" style="swimlane;fontStyle=1;align=center;verticalAlign=top;childLayout=stackLayout;horizontal=1;startSize=26;horizontalStack=0;resizeParent=1;resizeParentMax=0;resizeLast=0;collapsible=1;marginBottom=0;" parent="WIyWlLk6GJQsqaUBKTNV-1" vertex="1">
          <mxGeometry x="80" y="440" width="160" height="99" as="geometry" />
        </mxCell>
        <mxCell id="534QqyFiL1MUl5NV4_Nv-46" value="myTicketID :Ticket" style="text;strokeColor=none;fillColor=none;align=left;verticalAlign=top;spacingLeft=4;spacingRight=4;overflow=hidden;rotatable=0;points=[[0,0.5],[1,0.5]];portConstraint=eastwest;" parent="534QqyFiL1MUl5NV4_Nv-45" vertex="1">
          <mxGeometry y="26" width="160" height="26" as="geometry" />
        </mxCell>
        <mxCell id="534QqyFiL1MUl5NV4_Nv-47" value="" style="line;strokeWidth=1;fillColor=none;align=left;verticalAlign=middle;spacingTop=-1;spacingLeft=3;spacingRight=3;rotatable=0;labelPosition=right;points=[];portConstraint=eastwest;" parent="534QqyFiL1MUl5NV4_Nv-45" vertex="1">
          <mxGeometry y="52" width="160" height="8" as="geometry" />
        </mxCell>
        <mxCell id="534QqyFiL1MUl5NV4_Nv-48" value="createStaff()&#xa;buyTicket()" style="text;strokeColor=none;fillColor=none;align=left;verticalAlign=top;spacingLeft=4;spacingRight=4;overflow=hidden;rotatable=0;points=[[0,0.5],[1,0.5]];portConstraint=eastwest;" parent="534QqyFiL1MUl5NV4_Nv-45" vertex="1">
          <mxGeometry y="60" width="160" height="39" as="geometry" />
        </mxCell>
        <mxCell id="534QqyFiL1MUl5NV4_Nv-41" value="Manager" style="swimlane;fontStyle=1;align=center;verticalAlign=top;childLayout=stackLayout;horizontal=1;startSize=26;horizontalStack=0;resizeParent=1;resizeParentMax=0;resizeLast=0;collapsible=1;marginBottom=0;" parent="WIyWlLk6GJQsqaUBKTNV-1" vertex="1">
          <mxGeometry x="80" y="600" width="160" height="90" as="geometry" />
        </mxCell>
        <mxCell id="534QqyFiL1MUl5NV4_Nv-42" value="N/A" style="text;strokeColor=none;fillColor=none;align=left;verticalAlign=top;spacingLeft=4;spacingRight=4;overflow=hidden;rotatable=0;points=[[0,0.5],[1,0.5]];portConstraint=eastwest;" parent="534QqyFiL1MUl5NV4_Nv-41" vertex="1">
          <mxGeometry y="26" width="160" height="26" as="geometry" />
        </mxCell>
        <mxCell id="534QqyFiL1MUl5NV4_Nv-43" value="" style="line;strokeWidth=1;fillColor=none;align=left;verticalAlign=middle;spacingTop=-1;spacingLeft=3;spacingRight=3;rotatable=0;labelPosition=right;points=[];portConstraint=eastwest;" parent="534QqyFiL1MUl5NV4_Nv-41" vertex="1">
          <mxGeometry y="52" width="160" height="8" as="geometry" />
        </mxCell>
        <mxCell id="534QqyFiL1MUl5NV4_Nv-44" value="createManger()&#xa;" style="text;strokeColor=none;fillColor=none;align=left;verticalAlign=top;spacingLeft=4;spacingRight=4;overflow=hidden;rotatable=0;points=[[0,0.5],[1,0.5]];portConstraint=eastwest;" parent="534QqyFiL1MUl5NV4_Nv-41" vertex="1">
          <mxGeometry y="60" width="160" height="30" as="geometry" />
        </mxCell>
        <mxCell id="534QqyFiL1MUl5NV4_Nv-49" value="Admin" style="swimlane;fontStyle=1;align=center;verticalAlign=top;childLayout=stackLayout;horizontal=1;startSize=26;horizontalStack=0;resizeParent=1;resizeParentMax=0;resizeLast=0;collapsible=1;marginBottom=0;" parent="WIyWlLk6GJQsqaUBKTNV-1" vertex="1">
          <mxGeometry x="80" y="740" width="160" height="90" as="geometry" />
        </mxCell>
        <mxCell id="534QqyFiL1MUl5NV4_Nv-50" value="N/A" style="text;strokeColor=none;fillColor=none;align=left;verticalAlign=top;spacingLeft=4;spacingRight=4;overflow=hidden;rotatable=0;points=[[0,0.5],[1,0.5]];portConstraint=eastwest;" parent="534QqyFiL1MUl5NV4_Nv-49" vertex="1">
          <mxGeometry y="26" width="160" height="26" as="geometry" />
        </mxCell>
        <mxCell id="534QqyFiL1MUl5NV4_Nv-51" value="" style="line;strokeWidth=1;fillColor=none;align=left;verticalAlign=middle;spacingTop=-1;spacingLeft=3;spacingRight=3;rotatable=0;labelPosition=right;points=[];portConstraint=eastwest;" parent="534QqyFiL1MUl5NV4_Nv-49" vertex="1">
          <mxGeometry y="52" width="160" height="8" as="geometry" />
        </mxCell>
        <mxCell id="534QqyFiL1MUl5NV4_Nv-52" value="createAdmin()&#xa;" style="text;strokeColor=none;fillColor=none;align=left;verticalAlign=top;spacingLeft=4;spacingRight=4;overflow=hidden;rotatable=0;points=[[0,0.5],[1,0.5]];portConstraint=eastwest;" parent="534QqyFiL1MUl5NV4_Nv-49" vertex="1">
          <mxGeometry y="60" width="160" height="30" as="geometry" />
        </mxCell>
        <mxCell id="534QqyFiL1MUl5NV4_Nv-82" value="" style="endArrow=none;html=1;fontSize=10;edgeStyle=elbowEdgeStyle;" parent="WIyWlLk6GJQsqaUBKTNV-1" target="534QqyFiL1MUl5NV4_Nv-22" edge="1">
          <mxGeometry width="50" height="50" relative="1" as="geometry">
            <mxPoint x="155" y="440" as="sourcePoint" />
            <mxPoint x="205" y="390" as="targetPoint" />
            <Array as="points">
              <mxPoint x="155" y="368" />
            </Array>
          </mxGeometry>
        </mxCell>
        <mxCell id="534QqyFiL1MUl5NV4_Nv-83" value="1" style="text;html=1;resizable=0;autosize=1;align=center;verticalAlign=middle;points=[];fillColor=none;strokeColor=none;rounded=0;fontSize=10;" parent="WIyWlLk6GJQsqaUBKTNV-1" vertex="1">
          <mxGeometry x="160" y="420" width="20" height="20" as="geometry" />
        </mxCell>
        <mxCell id="534QqyFiL1MUl5NV4_Nv-84" value="0..*" style="text;html=1;resizable=0;autosize=1;align=center;verticalAlign=middle;points=[];fillColor=none;strokeColor=none;rounded=0;fontSize=10;" parent="WIyWlLk6GJQsqaUBKTNV-1" vertex="1">
          <mxGeometry x="257" y="381" width="27" height="18" as="geometry" />
        </mxCell>
        <mxCell id="534QqyFiL1MUl5NV4_Nv-86" value="" style="endArrow=none;html=1;fontSize=10;edgeStyle=elbowEdgeStyle;entryX=-0.031;entryY=0.25;entryDx=0;entryDy=0;entryPerimeter=0;" parent="WIyWlLk6GJQsqaUBKTNV-1" edge="1" target="534QqyFiL1MUl5NV4_Nv-26">
          <mxGeometry width="50" height="50" relative="1" as="geometry">
            <mxPoint x="480" y="312" as="sourcePoint" />
            <mxPoint x="600" y="209" as="targetPoint" />
          </mxGeometry>
        </mxCell>
        <mxCell id="534QqyFiL1MUl5NV4_Nv-87" value="1" style="text;html=1;resizable=0;autosize=1;align=center;verticalAlign=middle;points=[];fillColor=none;strokeColor=none;rounded=0;fontSize=10;" parent="WIyWlLk6GJQsqaUBKTNV-1" vertex="1">
          <mxGeometry x="490" y="320" width="20" height="20" as="geometry" />
        </mxCell>
        <mxCell id="534QqyFiL1MUl5NV4_Nv-88" value="0..*" style="text;html=1;resizable=0;autosize=1;align=center;verticalAlign=middle;points=[];fillColor=none;strokeColor=none;rounded=0;fontSize=10;" parent="WIyWlLk6GJQsqaUBKTNV-1" vertex="1">
          <mxGeometry x="571.5" y="200" width="27" height="18" as="geometry" />
        </mxCell>
        <mxCell id="534QqyFiL1MUl5NV4_Nv-89" value="" style="edgeStyle=elbowEdgeStyle;html=1;endSize=12;endArrow=block;endFill=0;fontSize=10;exitX=1.006;exitY=0.017;exitDx=0;exitDy=0;exitPerimeter=0;entryX=0;entryY=0.5;entryDx=0;entryDy=0;" parent="WIyWlLk6GJQsqaUBKTNV-1" target="534QqyFiL1MUl5NV4_Nv-34" edge="1">
          <mxGeometry width="160" relative="1" as="geometry">
            <mxPoint x="240.00000000000003" y="638.02" as="sourcePoint" />
            <mxPoint x="359.04" y="690" as="targetPoint" />
            <Array as="points">
              <mxPoint x="290" y="600" />
            </Array>
          </mxGeometry>
        </mxCell>
        <mxCell id="534QqyFiL1MUl5NV4_Nv-90" value="" style="endArrow=none;html=1;fontSize=10;entryX=0.5;entryY=0;entryDx=0;entryDy=0;edgeStyle=orthogonalEdgeStyle;" parent="WIyWlLk6GJQsqaUBKTNV-1" source="534QqyFiL1MUl5NV4_Nv-34" target="534QqyFiL1MUl5NV4_Nv-53" edge="1">
          <mxGeometry width="50" height="50" relative="1" as="geometry">
            <mxPoint x="550" y="640" as="sourcePoint" />
            <mxPoint x="600" y="590" as="targetPoint" />
          </mxGeometry>
        </mxCell>
        <mxCell id="534QqyFiL1MUl5NV4_Nv-91" value="" style="edgeStyle=elbowEdgeStyle;html=1;endSize=12;endArrow=block;endFill=0;fontSize=10;exitX=1;exitY=0.5;exitDx=0;exitDy=0;entryX=0.006;entryY=0.895;entryDx=0;entryDy=0;entryPerimeter=0;" parent="WIyWlLk6GJQsqaUBKTNV-1" source="534QqyFiL1MUl5NV4_Nv-50" target="534QqyFiL1MUl5NV4_Nv-34" edge="1">
          <mxGeometry width="160" relative="1" as="geometry">
            <mxPoint x="240" y="665.02" as="sourcePoint" />
            <mxPoint x="360" y="580" as="targetPoint" />
            <Array as="points">
              <mxPoint x="320" y="680" />
              <mxPoint x="309.04" y="704" />
            </Array>
          </mxGeometry>
        </mxCell>
        <mxCell id="534QqyFiL1MUl5NV4_Nv-53" value="Password" style="swimlane;fontStyle=1;align=center;verticalAlign=top;childLayout=stackLayout;horizontal=1;startSize=26;horizontalStack=0;resizeParent=1;resizeParentMax=0;resizeLast=0;collapsible=1;marginBottom=0;" parent="WIyWlLk6GJQsqaUBKTNV-1" vertex="1">
          <mxGeometry x="490" y="750" width="320" height="120" as="geometry" />
        </mxCell>
        <mxCell id="534QqyFiL1MUl5NV4_Nv-54" value="Password :String" style="text;strokeColor=none;fillColor=none;align=left;verticalAlign=top;spacingLeft=4;spacingRight=4;overflow=hidden;rotatable=0;points=[[0,0.5],[1,0.5]];portConstraint=eastwest;" parent="534QqyFiL1MUl5NV4_Nv-53" vertex="1">
          <mxGeometry y="26" width="320" height="26" as="geometry" />
        </mxCell>
        <mxCell id="534QqyFiL1MUl5NV4_Nv-55" value="" style="line;strokeWidth=1;fillColor=none;align=left;verticalAlign=middle;spacingTop=-1;spacingLeft=3;spacingRight=3;rotatable=0;labelPosition=right;points=[];portConstraint=eastwest;" parent="534QqyFiL1MUl5NV4_Nv-53" vertex="1">
          <mxGeometry y="52" width="320" height="8" as="geometry" />
        </mxCell>
        <mxCell id="534QqyFiL1MUl5NV4_Nv-56" value="CreatePassword() :return Boolean&#xa;checkPassword() :return Boolean&#xa;changePassword(oldPassword :Password) return Boolean" style="text;strokeColor=none;fillColor=none;align=left;verticalAlign=top;spacingLeft=4;spacingRight=4;overflow=hidden;rotatable=0;points=[[0,0.5],[1,0.5]];portConstraint=eastwest;" parent="534QqyFiL1MUl5NV4_Nv-53" vertex="1">
          <mxGeometry y="60" width="320" height="60" as="geometry" />
        </mxCell>
        <mxCell id="534QqyFiL1MUl5NV4_Nv-33" value="Person" style="swimlane;fontStyle=1;align=center;verticalAlign=top;childLayout=stackLayout;horizontal=1;startSize=26;horizontalStack=0;resizeParent=1;resizeParentMax=0;resizeLast=0;collapsible=1;marginBottom=0;" parent="WIyWlLk6GJQsqaUBKTNV-1" vertex="1">
          <mxGeometry x="414" y="450" width="171" height="140" as="geometry" />
        </mxCell>
        <mxCell id="534QqyFiL1MUl5NV4_Nv-34" value="title :String&#xa;firstNames :String&#xa;lastName :String&#xa;dateOfBirth :Date&#xa;passengerID :string&#xa;isStaff :Bool&#xa;myPassword :Password (ref)" style="text;strokeColor=none;fillColor=none;align=left;verticalAlign=top;spacingLeft=4;spacingRight=4;overflow=hidden;rotatable=0;points=[[0,0.5],[1,0.5]];portConstraint=eastwest;" parent="534QqyFiL1MUl5NV4_Nv-33" vertex="1">
          <mxGeometry y="26" width="171" height="114" as="geometry" />
        </mxCell>
        <mxCell id="534QqyFiL1MUl5NV4_Nv-96" value="" style="edgeStyle=elbowEdgeStyle;html=1;endSize=12;endArrow=block;endFill=0;fontSize=10;exitX=1;exitY=0.5;exitDx=0;exitDy=0;" parent="WIyWlLk6GJQsqaUBKTNV-1" source="534QqyFiL1MUl5NV4_Nv-46" edge="1">
          <mxGeometry width="160" relative="1" as="geometry">
            <mxPoint x="240" y="525.02" as="sourcePoint" />
            <mxPoint x="417" y="482" as="targetPoint" />
            <Array as="points" />
          </mxGeometry>
        </mxCell>
        <mxCell id="534QqyFiL1MUl5NV4_Nv-29" value="Passenger" style="swimlane;fontStyle=1;align=center;verticalAlign=top;childLayout=stackLayout;horizontal=1;startSize=26;horizontalStack=0;resizeParent=1;resizeParentMax=0;resizeLast=0;collapsible=1;marginBottom=0;" parent="WIyWlLk6GJQsqaUBKTNV-1" vertex="1">
          <mxGeometry x="600" y="320" width="160" height="99" as="geometry" />
        </mxCell>
        <mxCell id="534QqyFiL1MUl5NV4_Nv-30" value="myTicketID :Ticket" style="text;strokeColor=none;fillColor=none;align=left;verticalAlign=top;spacingLeft=4;spacingRight=4;overflow=hidden;rotatable=0;points=[[0,0.5],[1,0.5]];portConstraint=eastwest;" parent="534QqyFiL1MUl5NV4_Nv-29" vertex="1">
          <mxGeometry y="26" width="160" height="26" as="geometry" />
        </mxCell>
        <mxCell id="534QqyFiL1MUl5NV4_Nv-31" value="" style="line;strokeWidth=1;fillColor=none;align=left;verticalAlign=middle;spacingTop=-1;spacingLeft=3;spacingRight=3;rotatable=0;labelPosition=right;points=[];portConstraint=eastwest;" parent="534QqyFiL1MUl5NV4_Nv-29" vertex="1">
          <mxGeometry y="52" width="160" height="8" as="geometry" />
        </mxCell>
        <mxCell id="534QqyFiL1MUl5NV4_Nv-32" value="createPassenger()&#xa;buyTicket()" style="text;strokeColor=none;fillColor=none;align=left;verticalAlign=top;spacingLeft=4;spacingRight=4;overflow=hidden;rotatable=0;points=[[0,0.5],[1,0.5]];portConstraint=eastwest;" parent="534QqyFiL1MUl5NV4_Nv-29" vertex="1">
          <mxGeometry y="60" width="160" height="39" as="geometry" />
        </mxCell>
        <mxCell id="534QqyFiL1MUl5NV4_Nv-97" value="" style="html=1;endSize=12;endArrow=block;endFill=0;fontSize=10;entryX=0.994;entryY=0.246;entryDx=0;entryDy=0;entryPerimeter=0;exitX=0.55;exitY=1.02;exitDx=0;exitDy=0;edgeStyle=orthogonalEdgeStyle;exitPerimeter=0;" parent="WIyWlLk6GJQsqaUBKTNV-1" source="534QqyFiL1MUl5NV4_Nv-32" target="534QqyFiL1MUl5NV4_Nv-34" edge="1">
          <mxGeometry width="160" relative="1" as="geometry">
            <mxPoint x="680" y="450" as="sourcePoint" />
            <mxPoint x="760" y="510" as="targetPoint" />
          </mxGeometry>
        </mxCell>
        <mxCell id="534QqyFiL1MUl5NV4_Nv-98" value="" style="endArrow=none;html=1;fontSize=10;edgeStyle=elbowEdgeStyle;" parent="WIyWlLk6GJQsqaUBKTNV-1" edge="1">
          <mxGeometry width="50" height="50" relative="1" as="geometry">
            <mxPoint x="482" y="351" as="sourcePoint" />
            <mxPoint x="600" y="368" as="targetPoint" />
            <Array as="points">
              <mxPoint x="540" y="360" />
            </Array>
          </mxGeometry>
        </mxCell>
        <mxCell id="xCnXscxY-VxHGIku6_TX-0" value="1" style="text;html=1;resizable=0;autosize=1;align=center;verticalAlign=middle;points=[];fillColor=none;strokeColor=none;rounded=0;fontSize=10;" parent="WIyWlLk6GJQsqaUBKTNV-1" vertex="1">
          <mxGeometry x="575" y="380" width="20" height="20" as="geometry" />
        </mxCell>
        <mxCell id="xCnXscxY-VxHGIku6_TX-1" value="0..*" style="text;html=1;resizable=0;autosize=1;align=center;verticalAlign=middle;points=[];fillColor=none;strokeColor=none;rounded=0;fontSize=10;" parent="WIyWlLk6GJQsqaUBKTNV-1" vertex="1">
          <mxGeometry x="487" y="361" width="27" height="18" as="geometry" />
        </mxCell>
        <mxCell id="xCnXscxY-VxHGIku6_TX-2" value="1" style="text;html=1;resizable=0;autosize=1;align=center;verticalAlign=middle;points=[];fillColor=none;strokeColor=none;rounded=0;fontSize=10;" parent="WIyWlLk6GJQsqaUBKTNV-1" vertex="1">
          <mxGeometry x="585" y="540" width="20" height="20" as="geometry" />
        </mxCell>
        <mxCell id="xCnXscxY-VxHGIku6_TX-3" value="1" style="text;html=1;resizable=0;autosize=1;align=center;verticalAlign=middle;points=[];fillColor=none;strokeColor=none;rounded=0;fontSize=10;" parent="WIyWlLk6GJQsqaUBKTNV-1" vertex="1">
          <mxGeometry x="621" y="720" width="20" height="20" as="geometry" />
        </mxCell>
        <mxCell id="534QqyFiL1MUl5NV4_Nv-25" value="Baggage" style="swimlane;fontStyle=1;align=center;verticalAlign=top;childLayout=stackLayout;horizontal=1;startSize=26;horizontalStack=0;resizeParent=1;resizeParentMax=0;resizeLast=0;collapsible=1;marginBottom=0;" parent="WIyWlLk6GJQsqaUBKTNV-1" vertex="1">
          <mxGeometry x="605" y="190" width="160" height="99" as="geometry" />
        </mxCell>
        <mxCell id="534QqyFiL1MUl5NV4_Nv-26" value="baggageID :String&#xa;myWeight :Decimal[2,2]&#xa;myTicketID :Ticket(ref)" style="text;strokeColor=none;fillColor=none;align=left;verticalAlign=top;spacingLeft=4;spacingRight=4;overflow=hidden;rotatable=0;points=[[0,0.5],[1,0.5]];portConstraint=eastwest;" parent="534QqyFiL1MUl5NV4_Nv-25" vertex="1">
          <mxGeometry y="26" width="160" height="44" as="geometry" />
        </mxCell>
        <mxCell id="534QqyFiL1MUl5NV4_Nv-27" value="" style="line;strokeWidth=1;fillColor=none;align=left;verticalAlign=middle;spacingTop=-1;spacingLeft=3;spacingRight=3;rotatable=0;labelPosition=right;points=[];portConstraint=eastwest;" parent="534QqyFiL1MUl5NV4_Nv-25" vertex="1">
          <mxGeometry y="70" width="160" height="8" as="geometry" />
        </mxCell>
        <mxCell id="534QqyFiL1MUl5NV4_Nv-28" value="createBaggage()" style="text;strokeColor=none;fillColor=none;align=left;verticalAlign=top;spacingLeft=4;spacingRight=4;overflow=hidden;rotatable=0;points=[[0,0.5],[1,0.5]];portConstraint=eastwest;" parent="534QqyFiL1MUl5NV4_Nv-25" vertex="1">
          <mxGeometry y="78" width="160" height="21" as="geometry" />
        </mxCell>
      </root>
    </mxGraphModel>
  </diagram>
</mxfile>
